<svg xmlns="http://www.w3.org/2000/svg" viewBox="0 0 32 32" role="img" aria-label="DialogueDown compilation pipeline"><title>DialogueDown compilation pipeline</title><path d="M6 2h20a5 5 0 0 1 5 5v15a5 5 0 0 1-5 5H12l-5 4 .6-4H6a5 5 0 0 1-5-5V7a5 5 0 0 1 5-5Z" fill="#0f172a"/><g transform="translate(4.800 3.900) scale(0.7)"><defs><radialGradient id="glow"><stop offset="0" stop-color="#a855f7" stop-opacity="0.5"/><stop offset="0.6" stop-color="#a855f7" stop-opacity="0.22"/><stop offset="1" stop-color="#a855f7" stop-opacity="0"/></radialGradient></defs><circle cx="16" cy="18" r="4.4" fill="url(#glow)"/><line x1="14.46" y1="16.29" x2="10.08" y2="11.42" stroke="#a855f7" stroke-width="1.7" stroke-linecap="round"/><path d="M8.54 9.71 L11.42 10.22 L8.74 12.62 Z" fill="#a855f7"/><line x1="17.54" y1="16.29" x2="21.92" y2="11.42" stroke="#a855f7" stroke-width="1.7" stroke-linecap="round"/><path d="M23.46 9.71 L23.26 12.62 L20.58 10.22 Z" fill="#a855f7"/><line x1="7.00" y1="10.30" x2="7.00" y2="19.40" stroke="#22c55e" stroke-width="1.7" stroke-linecap="round"/><path d="M7.00 21.70 L5.20 19.40 L8.80 19.40 Z" fill="#22c55e"/><line x1="25.00" y1="10.30" x2="25.00" y2="19.40" stroke="#22c55e" stroke-width="1.7" stroke-linecap="round"/><path d="M25.00 21.70 L23.20 19.40 L26.80 19.40 Z" fill="#22c55e"/><circle cx="7" cy="8" r="2.3" fill="#22c55e" stroke="#f8fafc" stroke-width="0.95"/><circle cx="25" cy="8" r="2.3" fill="#22c55e" stroke="#f8fafc" stroke-width="0.95"/><path d="M16 15.0 L19.0 18 L16 21.0 L13.0 18 Z" fill="#a855f7" stroke="#f8fafc" stroke-width="0.95" stroke-linejoin="round"/><rect x="4.20" y="21.70" width="5.6" height="4.6" rx="1.2" fill="#3b82f6" stroke="#f8fafc" stroke-width="0.95"/><g stroke="#f8fafc" stroke-width="0.66" stroke-linecap="round"><line x1="5.54" y1="23.26" x2="8.46" y2="23.26"/><line x1="5.54" y1="24.74" x2="7.67" y2="24.74"/></g><rect x="22.20" y="21.70" width="5.6" height="4.6" rx="1.2" fill="#3b82f6" stroke="#f8fafc" stroke-width="0.95"/><g stroke="#f8fafc" stroke-width="0.66" stroke-linecap="round"><line x1="23.54" y1="23.26" x2="26.46" y2="23.26"/><line x1="23.54" y1="24.74" x2="25.67" y2="24.74"/></g></g></svg>
